<?xml version="1.0" ?><!DOCTYPE svg  PUBLIC '-//W3C//DTD SVG 1.1//EN'  'http://www.w3.org/Graphics/SVG/1.1/DTD/svg11.dtd'><svg enable-background="new 0 0 800 800" height="800px" id="Layer_1" version="1.1" viewBox="0 0 800 800" width="800px" xml:space="preserve" xmlns="http://www.w3.org/2000/svg" xmlns:xlink="http://www.w3.org/1999/xlink"><g><path d="M64.072,459.943c11.473,0,25.642-3.274,42.574-12.764c11.017-6.175,23.367-17.257,37.666-30.078   c24.139-21.652,57.279-51.233,79.167-47.772c7.971,1.268,14.934,7.247,21.303,18.297c4.014,6.971,12.918,9.343,19.881,5.337   c6.963-4.013,9.359-12.918,5.338-19.881c-10.871-18.874-24.976-29.813-41.923-32.519c-35.635-5.745-71.562,26.474-103.208,54.861   c-12.472,11.18-24.261,21.75-32.458,26.356c-17.264,9.685-32.271,11.731-41.159,5.614c-2.292-1.567-3.754-3.388-4.639-4.997   c6.41-0.097,12.228-4.452,13.885-10.968c1.983-7.8-2.729-15.721-10.521-17.695c-15.348-3.924-25.65,3.168-30.183,11.082   c-6.857,11.991-3.283,29.313,8.49,41.176C32.549,450.299,44.346,459.943,64.072,459.943z" fill="#4D4D4D"/><path d="M230.482,410.375c1.982-7.793-2.722-15.713-10.513-17.696c-15.339-3.9-25.658,3.169-30.192,11.082   c-6.857,11.992-3.282,29.314,8.482,41.176c4.273,4.299,16.054,13.942,35.782,13.942c11.48,0,25.657-3.266,42.589-12.772   c11.001-6.175,23.35-17.249,37.649-30.069c24.13-21.644,57.141-51.226,79.184-47.781c7.962,1.284,14.933,7.264,21.302,18.313   c4.015,6.971,12.927,9.344,19.881,5.338c6.963-4.014,9.36-12.919,5.339-19.881c-10.871-18.874-24.976-29.818-41.931-32.527   c-35.66-5.659-71.563,26.482-103.216,54.862c-12.472,11.188-24.252,21.749-32.458,26.348c-17.265,9.693-32.271,11.732-41.152,5.63   c-2.283-1.575-3.746-3.388-4.639-4.988C223.008,421.261,228.824,416.891,230.482,410.375z" fill="#4D4D4D"/><path d="M405.796,461.154c11.479,0,25.657-3.267,42.589-12.772c11.001-6.175,23.35-17.24,37.65-30.062   c24.13-21.652,57.148-51.291,79.166-47.789c7.979,1.284,14.941,7.264,21.303,18.313c4.014,6.97,12.935,9.351,19.889,5.337   c6.972-4.013,9.361-12.918,5.347-19.881c-10.879-18.87-24.991-29.817-41.938-32.527c-35.668-5.671-71.563,26.482-103.217,54.862   c-12.463,11.188-24.243,21.75-32.449,26.348c-17.257,9.685-32.271,11.732-41.152,5.622c-2.283-1.567-3.745-3.379-4.639-4.988   c6.419-0.089,12.235-4.452,13.894-10.96c1.981-7.791-2.73-15.721-10.514-17.703c-15.364-3.908-25.665,3.152-30.191,11.082   c-6.858,11.984-3.291,29.297,8.481,41.167C374.28,451.502,386.069,461.154,405.796,461.154z" fill="#4D4D4D"/><path d="M739.784,340.714c-35.667-5.711-71.563,26.47-103.199,54.85c-12.479,11.188-24.27,21.758-32.475,26.364   c-17.257,9.668-32.247,11.732-41.151,5.622c-2.283-1.576-3.745-3.38-4.631-4.988c6.418-0.098,12.228-4.453,13.885-10.968   c1.991-7.793-2.722-15.713-10.521-17.696c-15.323-3.933-25.658,3.16-30.183,11.082c-6.85,11.976-3.29,29.298,8.481,41.159   c4.266,4.307,16.063,13.959,35.781,13.95c11.48,0,25.649-3.273,42.582-12.764c11.017-6.175,23.366-17.257,37.665-30.077   c24.131-21.644,57.149-51.331,79.166-47.773c7.979,1.268,14.941,7.264,21.304,18.297c4.03,6.979,12.934,9.352,19.89,5.346   c6.971-4.014,9.359-12.918,5.345-19.889C770.845,354.355,756.732,343.419,739.784,340.714z" fill="#4D4D4D"/><path d="M223.478,535.722c7.971,1.267,14.934,7.247,21.303,18.297c4.014,6.963,12.918,9.343,19.881,5.338   c6.963-4.014,9.359-12.918,5.338-19.881c-10.871-18.865-24.976-29.802-41.923-32.516c-35.635-5.687-71.562,26.471-103.208,54.858   c-12.472,11.18-24.261,21.75-32.458,26.356c-17.264,9.685-32.271,11.732-41.159,5.614c-2.292-1.568-3.754-3.388-4.639-4.997   c6.41-0.098,12.228-4.452,13.885-10.969c1.983-7.799-2.729-15.721-10.521-17.695c-15.348-3.916-25.65,3.169-30.183,11.082   c-6.857,11.992-3.283,29.313,8.49,41.177c4.266,4.306,16.063,13.949,35.789,13.949c11.473,0,25.642-3.274,42.574-12.764   c11.017-6.175,23.367-17.257,37.666-30.078C168.45,561.842,201.591,532.277,223.478,535.722z" fill="#4D4D4D"/><path d="M393.463,534.649c7.962,1.284,14.933,7.264,21.302,18.313c4.015,6.971,12.927,9.351,19.881,5.338   c6.963-4.014,9.36-12.919,5.339-19.882c-10.871-18.865-24.976-29.809-41.931-32.515c-35.66-5.672-71.563,26.47-103.216,54.85   c-12.472,11.188-24.252,21.75-32.458,26.348c-17.265,9.686-32.271,11.733-41.152,5.631c-2.283-1.576-3.746-3.388-4.639-4.988   c6.419-0.089,12.235-4.461,13.893-10.976c1.982-7.792-2.722-15.714-10.513-17.696c-15.339-3.908-25.658,3.169-30.192,11.082   c-6.857,11.992-3.282,29.314,8.482,41.176c4.273,4.298,16.054,13.942,35.782,13.942c11.48,0,25.657-3.267,42.589-12.772   c11.001-6.175,23.35-17.249,37.649-30.068C338.41,560.794,371.42,531.156,393.463,534.649z" fill="#4D4D4D"/><path d="M565.201,536.924c7.979,1.284,14.941,7.265,21.303,18.314c4.014,6.971,12.935,9.343,19.889,5.336   c6.972-4.013,9.361-12.918,5.347-19.881c-10.879-18.864-24.991-29.809-41.938-32.515c-35.668-5.694-71.563,26.471-103.217,54.851   c-12.463,11.187-24.243,21.75-32.449,26.348c-17.257,9.685-32.271,11.732-41.152,5.623c-2.283-1.569-3.745-3.38-4.639-4.989   c6.419-0.09,12.235-4.452,13.894-10.96c1.981-7.791-2.73-15.722-10.514-17.703c-15.364-3.909-25.665,3.151-30.191,11.082   c-6.858,11.982-3.291,29.297,8.481,41.167c4.266,4.298,16.055,13.95,35.782,13.95c11.479,0,25.657-3.267,42.589-12.772   c11.001-6.175,23.35-17.239,37.65-30.061C510.165,563.062,543.184,533.456,565.201,536.924z" fill="#4D4D4D"/><path d="M739.784,507.114c-35.667-5.751-71.563,26.463-103.199,54.843c-12.479,11.187-24.27,21.757-32.475,26.364   c-17.257,9.668-32.247,11.731-41.151,5.621c-2.283-1.575-3.745-3.379-4.631-4.987c6.418-0.098,12.228-4.453,13.885-10.969   c1.991-7.792-2.722-15.713-10.521-17.696c-15.323-3.932-25.658,3.161-30.183,11.082c-6.85,11.978-3.29,29.299,8.481,41.16   c4.266,4.307,16.063,13.958,35.781,13.95c11.48,0,25.649-3.273,42.582-12.764c11.017-6.175,23.366-17.257,37.665-30.077   c24.131-21.645,57.149-51.3,79.166-47.773c7.979,1.268,14.941,7.263,21.304,18.297c4.03,6.971,12.934,9.359,19.89,5.347   c6.971-4.015,9.359-12.918,5.345-19.89C770.845,520.756,756.732,509.82,739.784,507.114z" fill="#4D4D4D"/><path d="M64.072,293.542c11.473,0,25.642-3.271,42.574-12.768c11.017-6.175,23.367-17.252,37.666-30.078   c24.139-21.648,57.279-51.25,79.167-47.773c7.971,1.271,14.934,7.255,21.303,18.297c4.014,6.971,12.918,9.355,19.881,5.342   s9.359-12.918,5.338-19.885c-10.871-18.861-24.976-29.801-41.923-32.507c-35.635-5.74-71.562,26.462-103.208,54.85   c-12.472,11.188-24.261,21.754-32.458,26.356c-17.264,9.685-32.271,11.732-41.159,5.618c-2.292-1.572-3.754-3.392-4.639-4.997   c6.41-0.093,12.228-4.452,13.885-10.972c1.983-7.792-2.729-15.717-10.521-17.696c-15.348-3.908-25.65,3.169-30.183,11.086   c-6.857,11.992-3.283,29.31,8.49,41.176C32.549,283.895,44.346,293.542,64.072,293.542z" fill="#4D4D4D"/><path d="M221.228,259.938c-2.283-1.576-3.746-3.388-4.639-4.988c6.419-0.094,12.235-4.456,13.893-10.973   c1.982-7.795-2.722-15.717-10.513-17.699c-15.339-3.904-25.658,3.168-30.192,11.086c-6.857,11.992-3.282,29.306,8.482,41.172   c4.273,4.298,16.054,13.946,35.782,13.946c11.48-0.004,25.657-3.274,42.589-12.772c11.001-6.179,23.35-17.253,37.649-30.073   c24.13-21.64,57.141-51.263,79.184-47.777c7.962,1.276,14.933,7.263,21.302,18.305c4.015,6.971,12.927,9.351,19.881,5.341   c6.963-4.013,9.36-12.918,5.339-19.885c-10.871-18.866-24.976-29.805-41.931-32.515c-35.66-5.655-71.563,26.47-103.216,54.854   c-12.472,11.184-24.252,21.75-32.458,26.353C245.114,263.997,230.108,266.044,221.228,259.938z" fill="#4D4D4D"/><path d="M392.982,262.209c-2.283-1.572-3.745-3.384-4.639-4.989c6.419-0.093,12.235-4.452,13.894-10.964   c1.981-7.796-2.73-15.721-10.514-17.704c-15.364-3.907-25.665,3.157-30.191,11.078c-6.858,11.988-3.291,29.306,8.481,41.172   c4.266,4.302,16.055,13.95,35.782,13.95c11.479,0,25.657-3.27,42.589-12.771c11.001-6.175,23.35-17.245,37.65-30.065   c24.13-21.648,57.148-51.242,79.166-47.781c7.979,1.275,14.941,7.264,21.303,18.305c4.014,6.967,12.935,9.347,19.889,5.342   c6.972-4.014,9.361-12.918,5.347-19.885c-10.879-18.865-24.991-29.805-41.938-32.515c-35.668-5.646-71.563,26.475-103.217,54.854   c-12.463,11.188-24.243,21.75-32.449,26.352C416.878,266.268,401.863,268.315,392.982,262.209z" fill="#4D4D4D"/><path d="M562.959,261.145c-2.283-1.568-3.745-3.38-4.631-4.984c6.418-0.094,12.228-4.453,13.885-10.969   c1.991-7.792-2.722-15.717-10.521-17.7c-15.323-3.928-25.658,3.165-30.183,11.083c-6.85,11.983-3.29,29.301,8.481,41.167   c4.266,4.298,16.063,13.951,35.781,13.946c11.48,0,25.649-3.27,42.582-12.768c11.017-6.175,23.366-17.253,37.665-30.078   c24.131-21.64,57.149-51.283,79.166-47.769c7.979,1.271,14.941,7.259,21.304,18.301c4.03,6.971,12.934,9.352,19.89,5.342   c6.971-4.018,9.359-12.918,5.345-19.885c-10.878-18.866-24.99-29.806-41.938-32.511c-35.667-5.724-71.563,26.462-103.199,54.841   c-12.479,11.188-24.27,21.758-32.475,26.361C586.854,265.2,571.863,267.259,562.959,261.145z" fill="#4D4D4D"/></g></svg>