<?xml version="1.0" ?><!DOCTYPE svg  PUBLIC '-//W3C//DTD SVG 1.1//EN'  'http://www.w3.org/Graphics/SVG/1.1/DTD/svg11.dtd'><svg enable-background="new 0 0 91 91" height="91px" id="Layer_1" version="1.1" viewBox="0 0 91 91" width="91px" xml:space="preserve" xmlns="http://www.w3.org/2000/svg" xmlns:xlink="http://www.w3.org/1999/xlink"><g><g><g><g><path d="M45.742,0.242c-24.906,0-45.17,20.266-45.17,45.174c0,24.908,20.264,45.172,45.17,45.172      c24.91,0,45.176-20.264,45.176-45.172C90.918,20.507,70.652,0.242,45.742,0.242z M45.742,85.563      c-22.135,0-40.145-18.01-40.145-40.146c0-22.139,18.01-40.149,40.145-40.149c22.139,0,40.15,18.01,40.15,40.149      C85.893,67.553,67.881,85.563,45.742,85.563z"/><path d="M30.117,48.613c0.428-0.512,0.633-1.172,0.572-1.836c-0.547-6.031,2.555-11.771,7.898-14.625      c0.588-0.314,1.027-0.85,1.221-1.486c0.193-0.639,0.127-1.326-0.188-1.914l-6.477-12.127c-0.654-1.225-2.176-1.688-3.398-1.031      C17.734,22.007,10.768,34.91,11.998,48.465c0.117,1.305,1.213,2.287,2.498,2.287c0.076,0,0.152-0.004,0.229-0.012l13.689-1.234      C29.078,49.447,29.689,49.125,30.117,48.613z M16.883,45.502c-0.039-9.768,4.875-18.868,13.064-24.198l4.131,7.734      c-5.119,3.617-8.25,9.413-8.463,15.674L16.883,45.502z"/><path d="M57.58,58.531c-0.779-1.148-2.342-1.447-3.49-0.67c-2.506,1.699-5.424,2.596-8.438,2.596      c-2.904,0-5.732-0.838-8.18-2.426c-0.561-0.363-1.24-0.488-1.893-0.35s-1.221,0.531-1.584,1.092l-7.475,11.537      c-0.756,1.164-0.424,2.719,0.74,3.475c5.502,3.564,11.861,5.449,18.395,5.449c6.775,0,13.334-2.016,18.969-5.832      c0.551-0.373,0.932-0.951,1.059-1.605c0.125-0.654-0.014-1.332-0.389-1.885L57.58,58.531z M45.656,74.209      c-4.723,0-9.34-1.156-13.494-3.365l4.77-7.359c2.713,1.313,5.686,1.998,8.721,1.998c3.182,0,6.281-0.748,9.09-2.182l4.922,7.262      C55.379,72.955,50.584,74.209,45.656,74.209z"/><path d="M63.354,16.617c-1.184-0.727-2.73-0.355-3.457,0.826l-7.191,11.709c-0.727,1.184-0.357,2.729,0.824,3.455      c5.156,3.174,7.9,9.092,6.992,15.077c-0.209,1.371,0.734,2.652,2.105,2.861l13.592,2.066c0.125,0.018,0.252,0.027,0.377,0.027      c0.533,0,1.055-0.17,1.49-0.488c0.537-0.396,0.895-0.988,0.994-1.646C81.125,37.043,74.951,23.742,63.354,16.617z       M74.383,47.248l-8.672-1.316c0.164-6.264-2.605-12.234-7.492-16.155l4.588-7.471C70.656,28.119,75.008,37.498,74.383,47.248z"/><path d="M34.969,45.416c0,5.943,4.834,10.777,10.775,10.777c5.943,0,10.779-4.834,10.779-10.777s-4.836-10.779-10.779-10.779      C39.803,34.637,34.969,39.473,34.969,45.416z M45.744,39.662c3.172,0,5.754,2.582,5.754,5.754s-2.582,5.752-5.754,5.752      c-3.17,0-5.75-2.58-5.75-5.752S42.574,39.662,45.744,39.662z"/></g></g></g></g></svg>