<?xml version="1.0" ?><!DOCTYPE svg  PUBLIC '-//W3C//DTD SVG 1.1//EN'  'http://www.w3.org/Graphics/SVG/1.1/DTD/svg11.dtd'><svg enable-background="new 0 0 90 90" height="90px" id="Layer_1" version="1.1" viewBox="0 0 90 90" width="90px" xml:space="preserve" xmlns="http://www.w3.org/2000/svg" xmlns:xlink="http://www.w3.org/1999/xlink"><path d="M83.848,61.666c0-0.006,0.002-0.011,0.002-0.017v-3.7c0-3.018-1.459-5.694-3.702-7.383c0-0.006,0.002-0.011,0.002-0.017  v-3.7c0-3.018-1.459-5.694-3.702-7.384c0-0.005,0.002-0.011,0.002-0.016V35.75c0-3.018-1.459-5.694-3.702-7.384  c0-0.005,0.002-0.011,0.002-0.016v-3.7c0-5.1-4.148-9.25-9.249-9.25H48.699c-5.1,0-9.25,4.149-9.25,9.25v1.85H22.8  c-0.633,0-1.252,0.064-1.85,0.187v-2.037c0-3.06,2.49-5.549,5.55-5.549h7.399c1.021,0,1.85-0.829,1.85-1.85s-0.829-1.85-1.85-1.85  H26.5c-5.101,0-9.25,4.149-9.25,9.25v3.7c0,0.006,0.001,0.011,0.001,0.017c-2.243,1.689-3.702,4.366-3.702,7.384v3.699  c0,0.006,0.001,0.011,0.001,0.017c-2.243,1.689-3.702,4.366-3.702,7.384v3.7c0,0.006,0.001,0.011,0.001,0.017  c-2.242,1.689-3.701,4.365-3.701,7.383v3.7c0,0.006,0.001,0.011,0.001,0.017C3.909,63.355,2.45,66.032,2.45,69.05v5.55h85.099v-5.55  C87.549,66.032,86.09,63.355,83.848,61.666z M76.45,48.887C75.852,48.765,75.233,48.7,74.6,48.7h-12.95  c-1.021,0-1.85,0.828-1.85,1.85s0.828,1.85,1.85,1.85H74.6c3.061,0,5.551,2.49,5.551,5.55v2.037  C79.553,59.864,78.934,59.8,78.3,59.8H56.1v-1.851c0-5.101-4.149-9.249-9.25-9.249h-5.55V46.85c0-3.061,2.49-5.55,5.55-5.55h24.05  c3.061,0,5.551,2.49,5.551,5.55V48.887z M48.699,19.1H63.5c3.06,0,5.55,2.489,5.55,5.549v2.037  c-0.599-0.122-1.217-0.187-1.851-0.187h-9.25c-1.021,0-1.85,0.829-1.85,1.85s0.828,1.85,1.85,1.85h9.25  c3.061,0,5.551,2.49,5.551,5.55v2.036c-0.598-0.122-1.217-0.187-1.851-0.187h-18.5V35.75c0-5.101-4.149-9.25-9.25-9.25v-1.85  C43.15,21.589,45.639,19.1,48.699,19.1z M13.549,46.85c0-3.061,2.49-5.55,5.55-5.55h12.95c1.021,0,1.85-0.829,1.85-1.85  s-0.829-1.85-1.85-1.85H19.1c-0.633,0-1.252,0.064-1.85,0.187V35.75c0-3.061,2.49-5.55,5.55-5.55h20.35  c3.061,0,5.551,2.49,5.551,5.55v1.849H46.85c-5.101,0-9.25,4.15-9.25,9.25V48.7h-22.2c-0.633,0-1.252,0.064-1.85,0.187V46.85z   M6.15,69.05c0-3.061,2.489-5.551,5.549-5.551h12.95c3.061,0,5.55,2.49,5.55,5.551V70.9H6.15V69.05z M83.85,70.9H33.9V69.05  c0-5.101-4.15-9.25-9.25-9.25h-12.95c-0.633,0-1.251,0.064-1.849,0.187v-2.037c0-3.06,2.489-5.55,5.549-5.55h31.45  c3.061,0,5.551,2.49,5.551,5.55V59.8H39.449c-1.022,0-1.85,0.828-1.85,1.85s0.828,1.85,1.85,1.85H78.3c3.06,0,5.55,2.49,5.55,5.551  V70.9z"/></svg>